<?xml version="1.0" encoding="UTF-8"?>
<svg id="Laag_1" xmlns="http://www.w3.org/2000/svg" version="1.1" viewBox="0 0 2400 1755.1">
  <!-- Generator: Adobe Illustrator 30.0.0, SVG Export Plug-In . SVG Version: 2.1.1 Build 123)  -->
  <defs>
    <style>
      .st0 {
        font-size: 430.71px;
        letter-spacing: .1em;
      }

      .st1 {
        fill: #8cd1c7;
        font-family: Poppins-Bold, Poppins;
        font-weight: 700;
      }

      .st2, .st3 {
        fill: #fff;
      }

      .st3 {
        font-family: Poppins-Light, Poppins;
        font-weight: 300;
      }
    </style>
  </defs>
  <g>
    <path class="st2" d="M939.78,1585.72h28.34c.18,0,2.58,2.39,2.58,2.58v66.98c0,6.83-35.45,21.29-42.51,22.75-65.69,13.63-123.97-30.95-117-99.83,7.9-78.04,109.99-104.05,161.15-50.01-4.37,4.04-15.16,21.13-21.06,19.57-1.06-.28-11.02-8.93-14.91-11.01-58.72-31.51-119.18,29.98-83.84,87.28,13.09,21.22,36.3,29.27,60.61,26.95,4.11-.39,26.64-5.84,26.64-9.43v-55.82Z"/>
    <path class="st2" d="M1590.68,1676.74h-32.63c-5.6-9.6-9.38-28.71-15.64-36.74-2.09-2.68-2.54-2.48-5.73-2.86-24.12-2.81-54.06,2.06-78.82.38-3.62,1.23-15.43,33.02-16.59,39.22h-34.35l73.99-170.74c2.95-4.12,31.74-4.01,35.08-1.03l74.68,171.76ZM1528.86,1609.74l-30.9-73.81-29.22,73.82c14.26,4.45,29.86.54,43.88-.06,5.41-.23,10.27,3.43,16.25.05Z"/>
    <path class="st2" d="M1029.09,1546.22v83.29c0,.58,3.97,9.34,4.79,10.66,11.08,17.68,39.41,15.28,50.91-1.33,12.43-17.95,3.34-63.74,6.04-86.7.2-1.73.78-5.92,2.66-5.92h25.76c.18,0,2.58,2.39,2.58,2.58v127.95h-29.2c-.69,0,.51-11.84-.02-13.74-21.89,25.12-69.83,22.97-86.16-7.42-3.7-6.88-8.28-22.03-8.28-29.51v-77.28c0-.18,2.39-2.58,2.58-2.58h28.34Z"/>
    <path class="st2" d="M1339.94,1676.74h-28.34c-.18,0-2.58-2.39-2.58-2.58v-80.72c0-.71-3.49-8.02-4.37-9.37-12.45-19.16-45.39-14.76-54.91,5.05-.69,1.45-4.26,12.23-4.26,12.91v74.71h-29.2v-130.52h26.62c3.32,0,2.72,10.99,2.59,13.74,29.14-26.74,82.16-19.93,91.96,22.23.53,2.3,2.48,13.22,2.48,14.69v79.86Z"/>
    <rect class="st2" x="1606.14" y="1503.28" width="30.91" height="175.05"/>
    <rect class="st2" x="1154.46" y="1546.22" width="29.2" height="130.52"/>
    <circle class="st2" cx="1381.1" cy="1659.81" r="19.67"/>
    <circle class="st2" cx="1169.24" cy="1509.52" r="18.69"/>
  </g>
  <g>
    <text class="st0" transform="translate(92.75 814.01)"><tspan class="st1"><tspan x="0" y="0">Bold</tspan></tspan><tspan class="st3"><tspan x="0" y="408.06">notbasic.</tspan></tspan></text>
    <path class="st2" d="M2248.51,52.89c15.34,6.82,28.69,16.75,40.46,28.56,40.92,41.05,65.89,90.27,73.76,147.83,9.45,69.08-15.01,124.78-67.71,168.98-11.98,10.04-24.78,19.1-36.73,29.17-15.59,13.14-18.83,27.29-11.5,46.35,4.16,10.82,8.5,21.57,12.6,32.42,10.85,28.7,16.82,58.49,19.35,88.99,1.75,21.12,6.37,41.5,14.3,61.16,7.42,18.37,9.76,37.37,2.36,56.03-9.17,23.12-9.86,47.33-11.45,71.48-.69,10.5-1.53,20.96-3.31,31.33-3.82,22.23-15.86,34.26-38.14,38.01-29.86,5.03-60.03,6.09-90.22,6.37-8.61.08-16.6-2.34-22.96-8.46-3.59-3.46-7.59-4.87-12.47-4.37-4.56.48-9.14.67-13.69,1.2-7.6.89-15.04.69-22.34-1.94-13.1-4.72-13.66-7.67-9.51-20.95,5.18-16.59,15.8-26.17,31.97-31.19,7.93-2.46,15.65-5.99,22.98-9.94,20.15-10.86,23.14-32.06,7.21-48.5-7.56-7.8-16.74-12.57-27.35-14.67-18.12-3.58-34.99-10.57-47.95-23.67-20.89-21.13-45.57-24.69-73.08-19.26-22.87,4.51-44.52,12.83-66.23,20.93-50.66,18.89-102.29,34.11-156.1,40.8-28.98,3.6-58.11,3.18-87.21,1.32-17.75-1.13-35.48-3.64-53.21-3.52-20.94.15-40.15,10.73-40.77,39.4-.31,14.28-1.27,28.54-3.23,42.69-2.12,15.39-10.61,25.44-25.54,30.22-17.91,5.73-36.52,6.74-55.01,8.36-12.34,1.09-24.76,1.2-37.15,1.6-10.69.34-20.3-2.58-28.01-10.32-2.74-2.75-5.54-3.34-9.43-2.86-11.45,1.41-22.99,3.68-34.48.02-12.23-3.89-14.22-8.1-10.8-20.54,4.63-16.86,15.21-27.59,31.94-32.22,6.83-1.89,13.11-4.95,19.35-8.11,19.09-9.69,27.1-26.68,22.79-47.8-3.31-16.22-12.12-29.28-23.69-40.61-13.29-13.02-27.66-24.94-40.08-38.83-23.8-26.62-38.82-56.88-37.52-93.61.4-11.43,2.85-22.49,7.07-33.06,13.89-34.73,13.36-69.07-3.41-102.56-10.57-21.12-14.57-42.99-13.16-66.51,1.39-23.14-8.22-38.3-27.31-45.64-12.15-4.68-24.4-3.02-36.35,1.41-13.41,4.97-26.91,9.76-41,12.33-44.48,8.12-83.03-4.86-116.99-33.59-2.68-2.26-5.41-4.47-7.97-6.86-13.14-12.31-13.25-24.7-.02-36.74,17.15-15.62,34.81-30.68,53.36-44.61,16.16-12.15,32.44-24.2,49.2-35.49,18.92-12.74,31.09-28.66,30.15-52.69-.34-8.65,4.15-15.7,11.38-20.32,16.02-10.25,30.07-22.72,43.26-36.33,8.61-8.88,19.47-14.36,31.05-18.41,29.54-10.32,59.87-15.38,91.25-15.15,24.2.18,44.72,8.25,62.14,24.87,10.54,10.05,21.39,19.76,31.99,29.75,15.92,15,32.37,29.08,51.62,40,19.63,11.14,30.89,28.48,29.84,51.85-1,22.34-7.14,43.54-16.27,63.89-4.87,10.85-10.38,21.41-17.66,30.82-4.81,6.22-4.23,11.6-1.25,18.59,15.6,36.55,42.55,58.51,80.82,69.45,39.65,11.33,79.64,18.46,120.77,20.61,59.83,3.12,118.94-2.96,177.85-12.31,32.49-5.16,65.08-9.49,98.01-10.04,39.99-.67,77.9,9.52,114.99,23.38,19.05,7.12,38.31,12.4,59.08,10.56,24.47-2.17,43.44-14,58.22-32.68,21.58-27.3,31.9-59.02,34.25-93.48,3.99-58.23-12.25-111.99-36.49-163.96-7.39-15.83-14.84-31.63-22.27-47.44.55-.49,1.09-.98,1.64-1.48Z"/>
  </g>
</svg>