<?xml version="1.0" encoding="UTF-8"?>
<svg id="Laag_1" xmlns="http://www.w3.org/2000/svg" version="1.1" viewBox="0 0 2400 1755.1">
  <!-- Generator: Adobe Illustrator 30.0.0, SVG Export Plug-In . SVG Version: 2.1.1 Build 123)  -->
  <defs>
    <style>
      .st0 {
        fill: #8cd1c7;
      }

      .st1 {
        fill: #fff;
      }
    </style>
  </defs>
  <g>
    <path class="st1" d="M939.78,1585.72h28.34c.18,0,2.58,2.39,2.58,2.58v66.98c0,6.83-35.45,21.29-42.51,22.75-65.69,13.63-123.97-30.95-117-99.83,7.9-78.04,109.99-104.05,161.15-50.01-4.37,4.04-15.16,21.13-21.06,19.57-1.06-.28-11.02-8.93-14.91-11.01-58.72-31.51-119.18,29.98-83.84,87.28,13.09,21.22,36.3,29.27,60.61,26.95,4.11-.39,26.64-5.84,26.64-9.43v-55.82Z"/>
    <path class="st1" d="M1590.68,1676.74h-32.63c-5.6-9.6-9.38-28.71-15.64-36.74-2.09-2.68-2.54-2.48-5.73-2.86-24.12-2.81-54.06,2.06-78.82.38-3.62,1.23-15.43,33.02-16.59,39.22h-34.35l73.99-170.74c2.95-4.12,31.74-4.01,35.08-1.03l74.68,171.76ZM1528.86,1609.74l-30.9-73.81-29.22,73.82c14.26,4.45,29.86.54,43.88-.06,5.41-.23,10.27,3.43,16.25.05Z"/>
    <path class="st1" d="M1029.09,1546.22v83.29c0,.58,3.97,9.34,4.79,10.66,11.08,17.68,39.41,15.28,50.91-1.33,12.43-17.95,3.34-63.74,6.04-86.7.2-1.73.78-5.92,2.66-5.92h25.76c.18,0,2.58,2.39,2.58,2.58v127.95h-29.2c-.69,0,.51-11.84-.02-13.74-21.89,25.12-69.83,22.97-86.16-7.42-3.7-6.88-8.28-22.03-8.28-29.51v-77.28c0-.18,2.39-2.58,2.58-2.58h28.34Z"/>
    <path class="st1" d="M1339.94,1676.74h-28.34c-.18,0-2.58-2.39-2.58-2.58v-80.72c0-.71-3.49-8.02-4.37-9.37-12.45-19.16-45.39-14.76-54.91,5.05-.69,1.45-4.26,12.23-4.26,12.91v74.71h-29.2v-130.52h26.62c3.32,0,2.72,10.99,2.59,13.74,29.14-26.74,82.16-19.93,91.96,22.23.53,2.3,2.48,13.22,2.48,14.69v79.86Z"/>
    <rect class="st1" x="1606.14" y="1503.28" width="30.91" height="175.05"/>
    <rect class="st1" x="1154.46" y="1546.22" width="29.2" height="130.52"/>
    <circle class="st1" cx="1381.1" cy="1659.81" r="19.67"/>
    <circle class="st1" cx="1169.24" cy="1509.52" r="18.69"/>
  </g>
  <g>
    <g>
      <path class="st0" d="M344.71,685.01c10.62,13.64,15.94,29.22,15.94,46.73,0,25.27-8.83,45.3-26.49,60.08-17.66,14.79-42.28,22.18-73.87,22.18H119.45v-302.36h136.1c30.72,0,54.77,7.04,72.14,21.1,17.37,14.07,26.06,33.17,26.06,57.28,0,17.81-4.67,32.59-14,44.36-9.33,11.78-21.75,19.96-37.26,24.55,17.51,3.74,31.58,12.42,42.21,26.06ZM193.1,633.97h48.24c12.06,0,21.32-2.65,27.78-7.97,6.46-5.31,9.69-13.14,9.69-23.47s-3.23-18.23-9.69-23.69c-6.46-5.45-15.72-8.18-27.78-8.18h-48.24v63.31ZM276.01,746.17c6.74-5.6,10.12-13.71,10.12-24.34s-3.52-18.95-10.55-24.98c-7.04-6.03-16.73-9.04-29.07-9.04h-53.41v66.76h54.27c12.34,0,21.89-2.8,28.64-8.4Z"/>
      <path class="st0" d="M492.23,802.38c-18.81-10.05-33.6-24.4-44.36-43.07-10.77-18.66-16.15-40.49-16.15-65.47s5.45-46.44,16.37-65.25c10.91-18.8,25.84-33.23,44.79-43.29,18.95-10.05,40.2-15.07,63.75-15.07s44.79,5.03,63.75,15.07c18.95,10.05,33.88,24.48,44.79,43.29,10.91,18.81,16.37,40.56,16.37,65.25s-5.53,46.45-16.58,65.25c-11.06,18.81-26.13,33.24-45.22,43.29-19.1,10.05-40.42,15.08-63.96,15.08s-44.73-5.02-63.53-15.08ZM591.72,738.21c9.91-10.34,14.86-25.12,14.86-44.36s-4.81-34.03-14.43-44.36c-9.62-10.34-21.47-15.51-35.53-15.51s-26.27,5.1-35.75,15.29c-9.48,10.2-14.21,25.06-14.21,44.58s4.66,34.03,14,44.36c9.33,10.34,21.03,15.51,35.1,15.51s26.06-5.17,35.96-15.51Z"/>
      <path class="st0" d="M837.44,495.28v318.73h-73.65v-318.73h73.65Z"/>
      <path class="st0" d="M933.27,628.37c9.33-18.66,22.03-33.02,38.12-43.07,16.08-10.05,34.03-15.07,53.84-15.07,15.79,0,30.22,3.3,43.29,9.91,13.06,6.61,23.33,15.51,30.8,26.7v-111.55h73.65v318.73h-73.65v-34.46c-6.89,11.49-16.73,20.67-29.5,27.57-12.78,6.89-27.64,10.34-44.58,10.34-19.81,0-37.76-5.09-53.84-15.29-16.08-10.19-28.79-24.69-38.12-43.5-9.33-18.8-14-40.55-14-65.25s4.66-46.37,14-65.04ZM1084.02,650.34c-10.2-10.62-22.61-15.94-37.26-15.94s-27.07,5.24-37.26,15.72c-10.2,10.49-15.29,24.91-15.29,43.29s5.09,32.95,15.29,43.72c10.19,10.77,22.61,16.15,37.26,16.15s27.06-5.31,37.26-15.94c10.19-10.62,15.29-25.12,15.29-43.5s-5.1-32.88-15.29-43.5Z"/>
      <path class="st1" d="M306.38,1008.66c17.8,17.38,26.7,42.57,26.7,75.59v137.83h-29.72v-134.38c0-25.55-6.39-45.08-19.17-58.58-12.78-13.49-30.22-20.24-52.33-20.24s-40.78,7.18-54.27,21.54c-13.5,14.36-20.24,35.47-20.24,63.31v128.35h-30.15v-235.17h30.15v40.06c7.46-14.35,18.23-25.34,32.3-32.95,14.07-7.6,30-11.41,47.81-11.41,28.14,0,51.11,8.69,68.91,26.06Z"/>
      <path class="st1" d="M486.2,1210.66c-17.66-9.91-31.59-23.97-41.78-42.21-10.2-18.23-15.29-39.55-15.29-63.96s5.17-45.72,15.51-63.96c10.34-18.23,24.4-32.3,42.21-42.21,17.8-9.91,37.75-14.86,59.87-14.86s42.14,4.95,60.08,14.86c17.94,9.91,32.01,23.98,42.21,42.21,10.19,18.24,15.29,39.56,15.29,63.96s-5.17,45.37-15.51,63.75c-10.34,18.38-24.55,32.52-42.64,42.42-18.09,9.91-38.19,14.86-60.3,14.86s-41.99-4.95-59.65-14.86ZM588.92,1188.69c13.2-7.03,23.9-17.66,32.09-31.87,8.18-14.21,12.28-31.66,12.28-52.33s-4.02-38.12-12.06-52.33c-8.04-14.21-18.67-24.83-31.87-31.87-13.21-7.03-27.57-10.55-43.07-10.55s-29.87,3.52-43.07,10.55c-13.21,7.04-23.76,17.66-31.66,31.87-7.9,14.21-11.84,31.66-11.84,52.33s3.94,38.12,11.84,52.33c7.89,14.21,18.37,24.84,31.44,31.87,13.06,7.04,27.35,10.55,42.86,10.55s29.86-3.51,43.07-10.55Z"/>
      <path class="st1" d="M801.69,1012.32v146.01c0,14.36,2.73,24.27,8.18,29.72,5.45,5.46,15.08,8.18,28.86,8.18h27.57v25.84h-32.3c-21.25,0-37.04-4.95-47.38-14.86-10.34-9.91-15.51-26.2-15.51-48.89v-146.01h-32.73v-25.41h32.73v-59.01h30.58v59.01h64.61v25.41h-64.61Z"/>
      <path class="st1" d="M1024.58,998.97c16.22-10.34,35.39-15.51,57.5-15.51s40.77,4.95,57.72,14.86c16.94,9.91,30.22,23.98,39.84,42.21,9.62,18.24,14.43,39.41,14.43,63.53s-4.81,45.37-14.43,63.75c-9.62,18.38-22.98,32.59-40.06,42.64-17.09,10.05-36.25,15.08-57.5,15.08-22.4,0-41.71-5.09-57.93-15.29-16.23-10.19-28.07-23.47-35.53-39.84v51.69h-29.72v-318.73h29.72v135.67c7.75-16.37,19.74-29.72,35.96-40.06ZM1152.07,1053.45c-7.61-14.21-18.02-25.05-31.23-32.52-13.21-7.46-28.14-11.2-44.79-11.2s-30.8,3.88-44.15,11.63-23.9,18.81-31.66,33.17c-7.75,14.36-11.63,31.01-11.63,49.96s3.88,35.61,11.63,49.96c7.75,14.36,18.31,25.41,31.66,33.16,13.35,7.75,28.06,11.63,44.15,11.63s31.58-3.8,44.79-11.41c13.2-7.6,23.62-18.66,31.23-33.16,7.6-14.5,11.41-31.37,11.41-50.61s-3.81-36.4-11.41-50.61Z"/>
      <path class="st1" d="M1293.34,1040.53c9.62-18.23,22.97-32.3,40.06-42.21,17.08-9.91,36.39-14.86,57.93-14.86s41.7,5.17,57.93,15.51c16.22,10.34,27.92,23.55,35.1,39.63v-51.69h30.15v235.17h-30.15v-52.12c-7.47,16.08-19.31,29.36-35.53,39.84-16.22,10.49-35.53,15.72-57.93,15.72s-40.42-5.02-57.5-15.08c-17.09-10.05-30.44-24.26-40.06-42.64-9.62-18.37-14.43-39.63-14.43-63.75s4.81-45.29,14.43-63.53ZM1472.73,1054.53c-7.75-14.35-18.3-25.41-31.66-33.17-13.35-7.75-28.07-11.63-44.15-11.63s-31.59,3.73-44.79,11.2c-13.21,7.47-23.62,18.31-31.23,32.52-7.61,14.21-11.41,31.09-11.41,50.61s3.8,36.11,11.41,50.61c7.61,14.5,18.02,25.56,31.23,33.16,13.2,7.61,28.14,11.41,44.79,11.41s30.79-3.88,44.15-11.63c13.35-7.75,23.9-18.8,31.66-33.16,7.75-14.35,11.63-31.01,11.63-49.96s-3.88-35.6-11.63-49.96Z"/>
      <path class="st1" d="M1641.35,1206.78c-17.09-12.49-26.64-29.5-28.64-51.04h31.01c1.43,13.21,7.68,23.9,18.74,32.09,11.05,8.18,25.91,12.28,44.58,12.28,16.37,0,29.21-3.88,38.55-11.63,9.33-7.75,14-17.37,14-28.86,0-8.04-2.58-14.64-7.75-19.81-5.17-5.17-11.7-9.26-19.6-12.28-7.9-3.02-18.59-6.25-32.09-9.69-17.52-4.59-31.73-9.19-42.64-13.78-10.92-4.59-20.18-11.41-27.78-20.46-7.61-9.04-11.41-21.17-11.41-36.4,0-11.48,3.45-22.11,10.34-31.87,6.89-9.76,16.65-17.51,29.29-23.26,12.63-5.74,26.99-8.61,43.07-8.61,25.26,0,45.66,6.39,61.16,19.17,15.51,12.78,23.83,30.37,24.98,52.76h-30.15c-.86-13.78-6.25-24.91-16.15-33.38-9.91-8.47-23.47-12.71-40.7-12.71-15.22,0-27.57,3.59-37.04,10.77-9.48,7.18-14.21,16.08-14.21,26.7,0,9.19,2.8,16.73,8.4,22.61,5.6,5.89,12.56,10.48,20.89,13.78,8.32,3.3,19.52,6.97,33.59,10.98,16.94,4.6,30.43,9.04,40.49,13.35,10.05,4.31,18.66,10.63,25.84,18.95,7.17,8.33,10.91,19.38,11.2,33.16,0,12.64-3.45,23.9-10.34,33.81-6.89,9.91-16.52,17.73-28.86,23.47-12.35,5.74-26.56,8.61-42.64,8.61-26.99,0-49.03-6.25-66.11-18.74Z"/>
      <path class="st1" d="M1888.79,936.08c-4.31-4.31-6.46-9.62-6.46-15.94s2.15-11.56,6.46-15.72c4.31-4.16,9.48-6.25,15.51-6.25s11.2,2.09,15.5,6.25c4.31,4.17,6.46,9.41,6.46,15.72s-2.15,11.63-6.46,15.94c-4.31,4.31-9.48,6.46-15.5,6.46s-11.2-2.15-15.51-6.46ZM1919.37,986.91v235.17h-30.15v-235.17h30.15Z"/>
      <path class="st1" d="M2031.78,1040.53c9.76-18.23,23.26-32.3,40.49-42.21,17.23-9.91,36.89-14.86,59.01-14.86,29,0,52.9,7.18,71.71,21.54,18.8,14.36,30.94,33.88,36.39,58.58h-32.3c-4.03-16.94-12.71-30.22-26.06-39.84-13.35-9.62-29.93-14.43-49.75-14.43-15.79,0-30.01,3.59-42.64,10.77-12.64,7.18-22.61,17.87-29.93,32.09-7.32,14.21-10.98,31.66-10.98,52.33s3.66,38.19,10.98,52.55c7.32,14.36,17.3,25.13,29.93,32.3,12.63,7.18,26.85,10.77,42.64,10.77,19.81,0,36.4-4.81,49.75-14.43,13.35-9.62,22.03-23.04,26.06-40.27h32.3c-5.46,24.12-17.66,43.5-36.61,58.15s-42.79,21.97-71.5,21.97c-22.11,0-41.78-4.95-59.01-14.86-17.23-9.91-30.73-23.97-40.49-42.21-9.76-18.23-14.64-39.55-14.64-63.96s4.88-45.72,14.64-63.96Z"/>
      <path class="st1" d="M2327.46,1217.77c-4.17-4.31-6.25-9.62-6.25-15.94s2.08-11.56,6.25-15.72c4.16-4.16,9.4-6.25,15.72-6.25s11.12,2.09,15.29,6.25c4.16,4.17,6.25,9.41,6.25,15.72s-2.09,11.63-6.25,15.94c-4.17,4.31-9.26,6.46-15.29,6.46s-11.56-2.15-15.72-6.46Z"/>
    </g>
    <path class="st1" d="M2248.51,52.89c15.34,6.82,28.69,16.75,40.46,28.56,40.92,41.05,65.89,90.27,73.76,147.83,9.45,69.08-15.01,124.78-67.71,168.98-11.98,10.04-24.78,19.1-36.73,29.17-15.59,13.14-18.83,27.29-11.5,46.35,4.16,10.82,8.5,21.57,12.6,32.42,10.85,28.7,16.82,58.49,19.35,88.99,1.75,21.12,6.37,41.5,14.3,61.16,7.42,18.37,9.76,37.37,2.36,56.03-9.17,23.12-9.86,47.33-11.45,71.48-.69,10.5-1.53,20.96-3.31,31.33-3.82,22.23-15.86,34.26-38.14,38.01-29.86,5.03-60.03,6.09-90.22,6.37-8.61.08-16.6-2.34-22.96-8.46-3.59-3.46-7.59-4.87-12.47-4.37-4.56.48-9.14.67-13.69,1.2-7.6.89-15.04.69-22.34-1.94-13.1-4.72-13.66-7.67-9.51-20.95,5.18-16.59,15.8-26.17,31.97-31.19,7.93-2.46,15.65-5.99,22.98-9.94,20.15-10.86,23.14-32.06,7.21-48.5-7.56-7.8-16.74-12.57-27.35-14.67-18.12-3.58-34.99-10.57-47.95-23.67-20.89-21.13-45.57-24.69-73.08-19.26-22.87,4.51-44.52,12.83-66.23,20.93-50.66,18.89-102.29,34.11-156.1,40.8-28.98,3.6-58.11,3.18-87.21,1.32-17.75-1.13-35.48-3.64-53.21-3.52-20.94.15-40.15,10.73-40.77,39.4-.31,14.28-1.27,28.54-3.23,42.69-2.12,15.39-10.61,25.44-25.54,30.22-17.91,5.73-36.52,6.74-55.01,8.36-12.34,1.09-24.76,1.2-37.15,1.6-10.69.34-20.3-2.58-28.01-10.32-2.74-2.75-5.54-3.34-9.43-2.86-11.45,1.41-22.99,3.68-34.48.02-12.23-3.89-14.22-8.1-10.8-20.54,4.63-16.86,15.21-27.59,31.94-32.22,6.83-1.89,13.11-4.95,19.35-8.11,19.09-9.69,27.1-26.68,22.79-47.8-3.31-16.22-12.12-29.28-23.69-40.61-13.29-13.02-27.66-24.94-40.08-38.83-23.8-26.62-38.82-56.88-37.52-93.61.4-11.43,2.85-22.49,7.07-33.06,13.89-34.73,13.36-69.07-3.41-102.56-10.57-21.12-14.57-42.99-13.16-66.51,1.39-23.14-8.22-38.3-27.31-45.64-12.15-4.68-24.4-3.02-36.35,1.41-13.41,4.97-26.91,9.76-41,12.33-44.48,8.12-83.03-4.86-116.99-33.59-2.68-2.26-5.41-4.47-7.97-6.86-13.14-12.31-13.25-24.7-.02-36.74,17.15-15.62,34.81-30.68,53.36-44.61,16.16-12.15,32.44-24.2,49.2-35.49,18.92-12.74,31.09-28.66,30.15-52.69-.34-8.65,4.15-15.7,11.38-20.32,16.02-10.25,30.07-22.72,43.26-36.33,8.61-8.88,19.47-14.36,31.05-18.41,29.54-10.32,59.87-15.38,91.25-15.15,24.2.18,44.72,8.25,62.14,24.87,10.54,10.05,21.39,19.76,31.99,29.75,15.92,15,32.37,29.08,51.62,40,19.63,11.14,30.89,28.48,29.84,51.85-1,22.34-7.14,43.54-16.27,63.89-4.87,10.85-10.38,21.41-17.66,30.82-4.81,6.22-4.23,11.6-1.25,18.59,15.6,36.55,42.55,58.51,80.82,69.45,39.65,11.33,79.64,18.46,120.77,20.61,59.83,3.12,118.94-2.96,177.85-12.31,32.49-5.16,65.08-9.49,98.01-10.04,39.99-.67,77.9,9.52,114.99,23.38,19.05,7.12,38.31,12.4,59.08,10.56,24.47-2.17,43.44-14,58.22-32.68,21.58-27.3,31.9-59.02,34.25-93.48,3.99-58.23-12.25-111.99-36.49-163.96-7.39-15.83-14.84-31.63-22.27-47.44.55-.49,1.09-.98,1.64-1.48Z"/>
  </g>
</svg>